<svg width="102" height="82" viewBox="0 0 102 82" fill="none" xmlns="http://www.w3.org/2000/svg">
<path d="M2 60.5L27.9273 33.6731C32.3433 29.104 39.5029 29.104 43.9188 33.6732L69.8462 60.5M62.3077 52.7L69.3889 45.3731C73.8048 40.804 80.9644 40.804 85.3804 45.3732L100 60.5M9.53846 80H92.4615C96.6249 80 100 76.5078 100 72.2V9.8C100 5.49218 96.6249 2 92.4615 2H9.53846C5.37508 2 2 5.49218 2 9.8V72.2C2 76.5078 5.37508 80 9.53846 80ZM62.3077 21.5H62.3454V21.539H62.3077V21.5ZM64.1923 21.5C64.1923 22.577 63.3485 23.45 62.3077 23.45C61.2668 23.45 60.4231 22.577 60.4231 21.5C60.4231 20.423 61.2668 19.55 62.3077 19.55C63.3485 19.55 64.1923 20.423 64.1923 21.5Z" stroke="white" stroke-width="3" stroke-linecap="round" stroke-linejoin="round"/>
</svg>
