<svg width="19" height="16" viewBox="0 0 19 16" fill="none" xmlns="http://www.w3.org/2000/svg">
<path fill-rule="evenodd" clip-rule="evenodd" d="M4.68829 5.74826C4.68829 5.54938 4.77058 5.35864 4.91708 5.21801C5.06357 5.07738 5.26225 4.99837 5.46942 4.99837H13.2808C13.488 4.99837 13.6866 5.07738 13.8331 5.21801C13.9796 5.35864 14.0619 5.54938 14.0619 5.74826C14.0619 5.94715 13.9796 6.13788 13.8331 6.27852C13.6866 6.41915 13.488 6.49815 13.2808 6.49815H5.46942C5.26225 6.49815 5.06357 6.41915 4.91708 6.27852C4.77058 6.13788 4.68829 5.94715 4.68829 5.74826ZM0.00146484 1.24891C0.00146484 1.05003 0.0837631 0.859294 0.230255 0.718662C0.376746 0.57803 0.575431 0.499023 0.782602 0.499023H17.9676C18.1748 0.499023 18.3735 0.57803 18.52 0.718662C18.6665 0.859294 18.7487 1.05003 18.7487 1.24891C18.7487 1.4478 18.6665 1.63854 18.52 1.77917C18.3735 1.9198 18.1748 1.99881 17.9676 1.99881H0.782602C0.575431 1.99881 0.376746 1.9198 0.230255 1.77917C0.0837631 1.63854 0.00146484 1.4478 0.00146484 1.24891Z" fill="black"/>
<path d="M4.91708 9.71736C4.77058 9.85799 4.68829 10.0487 4.68829 10.2476C4.68829 10.4465 4.77058 10.6372 4.91708 10.7779C5.06357 10.9185 5.26225 10.9975 5.46942 10.9975H13.2808C13.488 10.9975 13.6866 10.9185 13.8331 10.7779C13.9796 10.6372 14.0619 10.4465 14.0619 10.2476C14.0619 10.0487 13.9796 9.85799 13.8331 9.71736C13.6866 9.57673 13.488 9.49772 13.2808 9.49772H5.46942C5.26225 9.49772 5.06357 9.57673 4.91708 9.71736Z" fill="black"/>
<path d="M4.91708 14.2167C4.77058 14.3573 4.68829 14.5481 4.68829 14.747C4.68829 14.9458 4.77058 15.1366 4.91708 15.2772C5.06357 15.4178 5.26225 15.4969 5.46942 15.4969H13.2808C13.488 15.4969 13.6866 15.4178 13.8331 15.2772C13.9796 15.1366 14.0619 14.9458 14.0619 14.747C14.0619 14.5481 13.9796 14.3573 13.8331 14.2167C13.6866 14.0761 13.488 13.9971 13.2808 13.9971H5.46942C5.26225 13.9971 5.06357 14.0761 4.91708 14.2167Z" fill="black"/>
</svg>
