<svg width="20" height="16" viewBox="0 0 20 16" fill="none" xmlns="http://www.w3.org/2000/svg">
<path fill-rule="evenodd" clip-rule="evenodd" d="M19.2339 14.747C19.2339 14.5481 19.1516 14.3573 19.0051 14.2167C18.8586 14.0761 18.6599 13.9971 18.4527 13.9971H7.51683C7.30966 13.9971 7.11098 14.0761 6.96449 14.2167C6.818 14.3573 6.7357 14.5481 6.7357 14.747C6.7357 14.9458 6.818 15.1366 6.96449 15.2772C7.11098 15.4178 7.30966 15.4969 7.51683 15.4969H18.4527C18.6599 15.4969 18.8586 15.4178 19.0051 15.2772C19.1516 15.1366 19.2339 14.9458 19.2339 14.747ZM19.2339 10.2476C19.2339 10.0487 19.1516 9.85799 19.0051 9.71736C18.8586 9.57673 18.6599 9.49772 18.4527 9.49772H1.26774C1.06057 9.49772 0.861883 9.57673 0.715393 9.71736C0.568901 9.85799 0.486603 10.0487 0.486603 10.2476C0.486603 10.4465 0.568901 10.6372 0.715393 10.7779C0.861883 10.9185 1.06057 10.9975 1.26774 10.9975H18.4527C18.6599 10.9975 18.8586 10.9185 19.0051 10.7779C19.1516 10.6372 19.2339 10.4465 19.2339 10.2476ZM19.2339 5.74826C19.2339 5.54938 19.1516 5.35864 19.0051 5.21801C18.8586 5.07738 18.6599 4.99837 18.4527 4.99837H7.51683C7.30966 4.99837 7.11098 5.07738 6.96449 5.21801C6.818 5.35864 6.7357 5.54938 6.7357 5.74826C6.7357 5.94715 6.818 6.13788 6.96449 6.27852C7.11098 6.41915 7.30966 6.49815 7.51683 6.49815H18.4527C18.6599 6.49815 18.8586 6.41915 19.0051 6.27852C19.1516 6.13788 19.2339 5.94715 19.2339 5.74826ZM19.2339 1.24891C19.2339 1.05003 19.1516 0.859294 19.0051 0.718662C18.8586 0.57803 18.6599 0.499023 18.4527 0.499023H1.26774C1.06057 0.499023 0.861883 0.57803 0.715393 0.718662C0.568901 0.859294 0.486603 1.05003 0.486603 1.24891C0.486603 1.4478 0.568901 1.63854 0.715393 1.77917C0.861883 1.9198 1.06057 1.99881 1.26774 1.99881H18.4527C18.6599 1.99881 18.8586 1.9198 19.0051 1.77917C19.1516 1.63854 19.2339 1.4478 19.2339 1.24891Z" fill="black"/>
</svg>
