<svg width="20" height="16" viewBox="0 0 20 16" fill="none" xmlns="http://www.w3.org/2000/svg">
<path fill-rule="evenodd" clip-rule="evenodd" d="M0.516357 14.747C0.516357 14.5481 0.598656 14.3573 0.745147 14.2167C0.891639 14.0761 1.09032 13.9971 1.29749 13.9971H12.2334C12.4406 13.9971 12.6393 14.0761 12.7858 14.2167C12.9322 14.3573 13.0145 14.5481 13.0145 14.747C13.0145 14.9458 12.9322 15.1366 12.7858 15.2772C12.6393 15.4178 12.4406 15.4969 12.2334 15.4969H1.29749C1.09032 15.4969 0.891639 15.4178 0.745147 15.2772C0.598656 15.1366 0.516357 14.9458 0.516357 14.747ZM0.516357 10.2476C0.516357 10.0487 0.598656 9.85799 0.745147 9.71736C0.891639 9.57673 1.09032 9.49772 1.29749 9.49772H18.4825C18.6897 9.49772 18.8884 9.57673 19.0349 9.71736C19.1813 9.85799 19.2636 10.0487 19.2636 10.2476C19.2636 10.4465 19.1813 10.6372 19.0349 10.7779C18.8884 10.9185 18.6897 10.9975 18.4825 10.9975H1.29749C1.09032 10.9975 0.891639 10.9185 0.745147 10.7779C0.598656 10.6372 0.516357 10.4465 0.516357 10.2476ZM0.516357 5.74826C0.516357 5.54938 0.598656 5.35864 0.745147 5.21801C0.891639 5.07738 1.09032 4.99837 1.29749 4.99837H12.2334C12.4406 4.99837 12.6393 5.07738 12.7858 5.21801C12.9322 5.35864 13.0145 5.54938 13.0145 5.74826C13.0145 5.94715 12.9322 6.13788 12.7858 6.27852C12.6393 6.41915 12.4406 6.49815 12.2334 6.49815H1.29749C1.09032 6.49815 0.891639 6.41915 0.745147 6.27852C0.598656 6.13788 0.516357 5.94715 0.516357 5.74826ZM0.516357 1.24891C0.516357 1.05003 0.598656 0.859294 0.745147 0.718662C0.891639 0.57803 1.09032 0.499023 1.29749 0.499023H18.4825C18.6897 0.499023 18.8884 0.57803 19.0349 0.718662C19.1813 0.859294 19.2636 1.05003 19.2636 1.24891C19.2636 1.4478 19.1813 1.63854 19.0349 1.77917C18.8884 1.9198 18.6897 1.99881 18.4825 1.99881H1.29749C1.09032 1.99881 0.891639 1.9198 0.745147 1.77917C0.598656 1.63854 0.516357 1.4478 0.516357 1.24891Z" fill="black"/>
</svg>
