<svg width="38" height="38" viewBox="0 0 38 38" fill="none" xmlns="http://www.w3.org/2000/svg">
<path d="M35.8402 14C35.8402 20.9543 36.8355 31.5 33.8579 33.8395C31.8757 36 28.685 36 22.3041 36H15.5361C9.15511 36 5.96464 36 3.98231 33.8395C2 31.6792 2 28.2018 2 21.2475C2 14.293 2 10.8158 3.98231 8.65537C5.96464 6.49492 9.15511 6.49492 15.5361 6.49492H22.3041C28.685 6.49492 31.8757 6.49492 33.8579 8.65537C34.9809 9.87917 35.6292 11.5385 35.8402 14Z" stroke-width="3" stroke-linecap="round"/>
<path d="M5.3634 7.5322C5.55364 5.81534 5.95078 4.62888 6.77994 3.72837C8.37136 2 10.9327 2 16.0554 2H21.4888C26.6115 2 29.1729 2 30.7642 3.72837C31.5935 4.62888 31.9906 5.81534 32.1808 7.5322"/>
<path d="M5.3634 7.5322C5.55364 5.81534 5.95078 4.62888 6.77994 3.72837C8.37136 2 10.9327 2 16.0554 2H21.4888C26.6115 2 29.1729 2 30.7642 3.72837C31.5935 4.62888 31.9906 5.81534 32.1808 7.5322" stroke-width="3"/>
<path d="M28.2261 17.5593C29.6278 17.5593 30.7641 16.3209 30.7641 14.7932C30.7641 13.2655 29.6278 12.0271 28.2261 12.0271C26.8244 12.0271 25.6881 13.2655 25.6881 14.7932C25.6881 16.3209 26.8244 17.5593 28.2261 17.5593Z" stroke-width="3"/>
<path d="M2 22.1697L4.96371 19.3435C6.50559 17.8732 8.82943 17.9575 10.2781 19.5363L17.5364 27.4468C18.6991 28.7143 20.5296 28.8871 21.875 27.8564L22.3796 27.4701C24.3156 25.9871 26.935 26.159 28.694 27.8843L34.1482 33.2341"/>
<path d="M2 22.1697L4.96371 19.3435C6.50559 17.8732 8.82943 17.9575 10.2781 19.5363L17.5364 27.4468C18.6991 28.7143 20.5296 28.8871 21.875 27.8564L22.3796 27.4701C24.3156 25.9871 26.935 26.159 28.694 27.8843L34.1482 33.2341" stroke-width="3" stroke-linecap="round"/>
</svg>
