<svg width="38" height="38" viewBox="0 0 38 38" fill="none" xmlns="http://www.w3.org/2000/svg">
<path d="M2 19.3466C2 15.4563 2 13.5112 2.88264 11.8987C3.76528 10.2862 5.37781 9.28537 8.60285 7.28382L12.0029 5.17368C15.412 3.05789 17.1166 2 19 2C20.8834 2 22.588 3.05789 25.9972 5.17368L29.3972 7.2838C32.6223 9.28537 34.2347 10.2862 35.1174 11.8987C36 13.5112 36 15.4563 36 19.3466V21.9325C36 28.5639 36 31.8797 34.0083 33.9398C32.0167 36 28.811 36 22.4 36H15.6C9.18889 36 5.98336 36 3.99167 33.9398C2 31.8797 2 28.5639 2 21.9325V19.3466Z" stroke-width="3"/>
<path d="M24.1 29.2H13.9" stroke-width="3" stroke-linecap="round"/>
</svg>
