<svg width="38" height="38" viewBox="0 0 38 38" fill="none" xmlns="http://www.w3.org/2000/svg">
<path d="M19 9.57446V9.55559V9.57446ZM19 28.4444V15.2222V28.4444ZM36 19C36 28.3889 28.3889 36 19 36C9.61116 36 2 28.3889 2 19C2 9.61116 9.61116 2 19 2C28.3889 2 36 9.61116 36 19Z" fill-opacity="0.2"/>
<path d="M19 9.57446V9.55559M19 28.4444V15.2222M36 19C36 28.3889 28.3889 36 19 36C9.61116 36 2 28.3889 2 19C2 9.61116 9.61116 2 19 2C28.3889 2 36 9.61116 36 19Z" stroke-width="3" stroke-linecap="round" stroke-linejoin="round"/>
</svg>
