<svg width="20" height="20" viewBox="0 0 20 20" fill="none" xmlns="http://www.w3.org/2000/svg">
<path d="M17.74 2.76001C18.5471 3.56991 19.0002 4.66666 19.0002 5.81001C19.0002 6.95336 18.5471 8.05011 17.74 8.86001L16.21 10.38C15.09 11.5 13.51 11.85 12.07 11.47L14.69 8.86001L15.45 8.09001L16.21 7.33001C17.05 6.49001 17.05 5.13001 16.21 4.29001C16.0117 4.08803 15.7752 3.9276 15.5142 3.81808C15.2532 3.70856 14.973 3.65216 14.69 3.65216C14.407 3.65216 14.1268 3.70856 13.8658 3.81808C13.6048 3.9276 13.3683 4.08803 13.17 4.29001L12.4 5.05001L9.02001 8.43001C8.65001 6.99001 9.00001 5.41001 10.12 4.29001L11.64 2.76001C12.4499 1.95297 13.5467 1.49982 14.69 1.49982C15.8334 1.49982 16.9301 1.95297 17.74 2.76001ZM8.59001 13.43L13.93 8.09001C14.35 7.67001 14.35 6.99001 13.93 6.57001C13.49 6.14001 12.8 6.18001 12.4 6.57001L7.07001 11.91C6.65001 12.33 6.65001 13.01 7.07001 13.43C7.51001 13.86 8.20001 13.82 8.59001 13.43ZM7.83001 15.72L11.97 11.57C12.35 13.01 12 14.59 10.88 15.71L9.36001 17.24C8.55011 18.0471 7.45336 18.5002 6.31001 18.5002C5.16666 18.5002 4.06991 18.0471 3.26001 17.24C2.45297 16.4301 1.99982 15.3334 1.99982 14.19C1.99982 13.0467 2.45297 11.9499 3.26001 11.14L4.79001 9.62001C5.91001 8.50001 7.49001 8.15001 8.93001 8.52001L4.79001 12.67C3.94001 13.51 3.94001 14.87 4.79001 15.72C5.63001 16.56 6.99001 16.56 7.83001 15.72Z" fill="black"/>
</svg>
