<svg width="38" height="38" viewBox="0 0 38 38" fill="none" xmlns="http://www.w3.org/2000/svg">
<path d="M19.204 20.326C19.085 20.309 18.932 20.309 18.796 20.326C15.804 20.224 13.424 17.776 13.424 14.767C13.424 11.69 15.906 9.19096 19 9.19096C22.077 9.19096 24.576 11.69 24.576 14.767C24.559 17.776 22.196 20.224 19.204 20.326Z" stroke-width="3" stroke-linecap="round" stroke-linejoin="round"/>
<path d="M30.458 31.5462C27.432 34.3172 23.42 36.0002 19 36.0002C14.58 36.0002 10.568 34.3172 7.54199 31.5462C7.71199 29.9482 8.73199 28.3842 10.551 27.1602C15.209 24.0662 22.825 24.0662 27.449 27.1602C29.268 28.3842 30.288 29.9482 30.458 31.5462Z" stroke-width="3" stroke-linecap="round" stroke-linejoin="round"/>
<path d="M19 36C28.3888 36 36 28.3888 36 19C36 9.61116 28.3888 2 19 2C9.61116 2 2 9.61116 2 19C2 28.3888 9.61116 36 19 36Z" stroke-width="3" stroke-linecap="round" stroke-linejoin="round"/>
</svg>
