<svg width="36" height="38" viewBox="0 0 36 38" fill="none" xmlns="http://www.w3.org/2000/svg">
<path d="M10.6099 5.06359C14.2165 3.02119 16.0199 2 18 2C19.9801 2 21.7835 3.02119 25.39 5.06359L26.61 5.75438C30.2165 7.79678 32.0199 8.81797 33.01 10.5C34 12.182 34 14.2244 34 18.3093V19.6907C34 23.7756 34 25.818 33.01 27.5C32.0199 29.182 30.2165 30.2032 26.61 32.2456L25.39 32.9364C21.7835 34.9788 19.9801 36 18 36C16.0199 36 14.2165 34.9788 10.6099 32.9364L9.39008 32.2456C5.78347 30.2032 3.98016 29.182 2.99008 27.5C2 25.818 2 23.7756 2 19.6907V18.3093C2 14.2244 2 12.182 2.99008 10.5C3.98016 8.81797 5.78347 7.79678 9.39008 5.75438L10.6099 5.06359Z" stroke-width="3"/>
<path d="M18 24.0999C20.9455 24.0999 23.3334 21.8166 23.3334 18.9999C23.3334 16.1833 20.9455 13.8999 18 13.8999C15.0545 13.8999 12.6667 16.1833 12.6667 18.9999C12.6667 21.8166 15.0545 24.0999 18 24.0999Z" stroke-width="3"/>
</svg>
